<?xml version="1.0" encoding="utf-8"?>
<!-- Generator: Adobe Illustrator 24.0.1, SVG Export Plug-In . SVG Version: 6.00 Build 0)  -->
<svg version="1.1" id="Layer_1" xmlns="http://www.w3.org/2000/svg" xmlns:xlink="http://www.w3.org/1999/xlink" x="0px" y="0px"
	 viewBox="0 0 1080 1080" style="enable-background:new 0 0 1080 1080;" xml:space="preserve">
<style type="text/css">
	.st0{display:none;fill:#844E5E;}
	.st1{fill:#FFFFFF;}
	.st2{fill:#000068;}
</style>
<rect x="758.85" y="420.33" transform="matrix(0.7071 0.7071 -0.7071 0.7071 639.1509 -463.0428)" class="st0" width="239.34" height="239.34"/>
<rect x="589.61" y="251.1" transform="matrix(0.7071 0.7071 -0.7071 0.7071 469.9137 -392.9424)" class="st0" width="239.34" height="239.34"/>
<rect x="251.1" y="589.57" transform="matrix(0.7071 0.7071 -0.7071 0.7071 610.0995 -54.4401)" class="st0" width="239.34" height="239.34"/>
<rect x="420.37" y="81.86" transform="matrix(0.7071 0.7071 -0.7071 0.7071 300.6765 -322.8421)" class="st0" width="239.34" height="239.34"/>
<rect x="420.37" y="758.8" transform="matrix(0.7071 0.7071 -0.7071 0.7071 779.3488 -124.5695)" class="st0" width="239.34" height="239.34"/>
<polygon class="st1" points="3415.43,224.57 3415.43,855.62 3257.67,855.62 3257.67,618.98 2942.14,618.98 2942.14,855.62 
	2784.38,855.62 2784.38,224.57 2942.14,224.57 2942.14,461.21 3257.67,461.21 3257.67,224.57 "/>
<polygon class="st1" points="3482.24,357.79 3482.24,157.96 2717.76,157.96 2717.76,922.24 3482.24,922.24 3482.24,722.4 
	3640,722.4 3640,1080 2560,1080 2560,0.19 3640,0.19 3640,357.79 "/>
<polygon class="st2" points="2121.21,224.57 2121.21,855.62 1963.45,855.62 1963.45,618.98 1647.92,618.98 1647.92,855.62 
	1490.15,855.62 1490.15,224.57 1647.92,224.57 1647.92,461.21 1963.45,461.21 1963.45,224.57 "/>
<polygon class="st2" points="2188.01,357.79 2188.01,157.96 1423.54,157.96 1423.54,922.24 2188.01,922.24 2188.01,722.4 
	2345.78,722.4 2345.78,1080 1265.78,1080 1265.78,0.19 2345.78,0.19 2345.78,357.79 "/>
<polygon points="855.43,224.57 855.43,855.62 697.67,855.62 697.67,618.98 382.14,618.98 382.14,855.62 224.38,855.62 
	224.38,224.57 382.14,224.57 382.14,461.21 697.67,461.21 697.67,224.57 "/>
<polygon points="922.24,357.79 922.24,157.96 157.76,157.96 157.76,922.24 922.24,922.24 922.24,722.4 1080,722.4 1080,1080 0,1080 
	0,0.19 1080,0.19 1080,357.79 "/>
</svg>
